
<svg width="300" height="300" viewBox="0 0 300 300" fill="none" xmlns="http://www.w3.org/2000/svg">
  <circle cx="150" cy="150" r="150" fill="black"/>
  <path d="M70 150 C70 105.82 105.82 70 150 70 C194.18 70 230 105.82 230 150 C230 194.18 194.18 230 150 230 C105.82 230 70 194.18 70 150 Z" stroke="white" stroke-width="3"/>
  <path d="M120 120 L135 150 L150 100 L170 180 L190 110" stroke="white" stroke-width="3" fill="none"/>
  <path d="M65 200 L65 100 M65 150 L95 150" stroke="white" stroke-width="3"/>
  <path d="M235 100 L235 200 M235 100 L205 100 M235 150 L205 150" stroke="white" stroke-width="3"/>
  <text x="150" y="230" font-family="Arial" font-size="20" text-anchor="middle" fill="white">HOMIE SERVICES</text>
  <text x="150" y="260" font-family="Arial" font-size="10" text-anchor="middle" fill="white">ONE CALL, HOMIE DOES IT ALL!</text>
</svg>
